{"title":"WWE Raw 09.05.2011","uid":6381657,"size":443315164,"categoryP":"video","categoryS":"tv_shows","magnet":"?xt=urn:btih:d8a81a2fd9d77d5fb03e30a0d045f89d2a29c128&amp;dn=WWE+Raw+09.05.2011&amp;tr=udp%3A%2F%2Ftracker.openbittorrent.com%3A80&amp;tr=udp%3A%2F%2Fopen.demonii.com%3A1337&amp;tr=udp%3A%2F%2Ftracker.coppersurfer.tk%3A6969&amp;tr=udp%3A%2F%2Fexodus.desync.com%3A6969","seeders":1,"leechers":0,"uploader":"spyke1998","files":1,"time":1305050242,"description":"Video #0\n      ID : 0\n      Format : AVC\n      Format/Info : Advanced Video Codec\n      Format profile : &lt;a class=&quot;__cf_email__&quot; href=&quot;/cdn-cgi/l/email-protection&quot; data-cfemail=&quot;094b687a6c6560676c494538273a&quot;&gt;[email&amp;#160;protected]&lt;/a&gt;&lt;script cf-hash='f9e31' type=&quot;text/javascript&quot;&gt;\n/* &lt;![CDATA[ */!function(){try{var t=&quot;currentScript&quot;in document?document.currentScript:function(){for(var t=document.getElementsByTagName(&quot;script&quot;),e=t.length;e--;)if(t[e].getAttribute(&quot;cf-hash&quot;))return t[e]}();if(t&amp;&amp;t.previousSibling){var e,r,n,i,c=t.previousSibling,a=c.getAttribute(&quot;data-cfemail&quot;);if(a){for(e=&quot;&quot;,r=parseInt(a.substr(0,2),16),n=2;a.length-n;n+=2)i=parseInt(a.substr(n,2),16)^r,e+=String.fromCharCode(i);e=document.createTextNode(e),c.parentNode.replaceChild(e,c)}}}catch(u){}}();/* ]]&gt; */&lt;/script&gt;\n      Format settings, CABAC : No\n      Format settings, ReFrames : 1 frame\n      Codec ID : avc1\n      Duration : 1h 30mn\n      Bit rate : 512 Kbps\n      Width : 320 pixels\n      Height : 182 pixels\n      Display aspect ratio : 16:9\n      Frame rate : 25.000 fps\n      Resolution : 24 bits\n      Colorimetry : 4:2:0\n      Scan type : Progressive\n      Bits/(Pixel*Frame) : 0.352\n      Stream size : 331 MiB (78%)\n      Writing library : x264 core 67 r1163+17 7d945df\n      Encoding settings : cabac=0 / ref=1 / deblock=1:0:0 / analyse=0x1:0x111 / me=dia / subme=6 / psy_rd=1.0:0.0 / mixed_ref=0 / me_range=16 / chroma_me=1 / trellis=0 / 8x8dct=0 / cqm=0 / deadzone=21,11 / chroma_qp_offset=-2 / threads=1 / nr=0 / decimate=1 / mbaff=0 / bframes=0 / keyint=250 / keyint_min=25 / scenecut=40 / rc=abr / bitrate=512 / ratetol=1.0 / qcomp=0.60 / qpmin=10 / qpmax=51 / qpstep=4 / ip_ratio=1.40 / aq=1:1.00\n  Audio #1\n      ID : 1\n      Format : MPEG Audio\n      Format version : Version 1\n      Format profile : Layer 3\n      Codec ID : 55\n      Codec ID/Hint : MP3\n      Duration : 1h 30mn\n      Bit rate mode : Constant\n      Bit rate : 128 Kbps\n      Channel(s) : 2 channels\n      Sampling rate : 48.0 KHz\n      Resolution : 16 bits\n      Stream size : 82.9 MiB (20%)\n      Alignment : Aligned on interleaves\n      Interleave, duration : 24 ms (0.60 video frame)\n      Interleave, preload duration : 504 ms","torrent":{"xt":"urn:btih:d8a81a2fd9d77d5fb03e30a0d045f89d2a29c128","amp;dn":"WWE+Raw+09.05.2011","amp;tr":["udp%3A%2F%2Ftracker.openbittorrent.com%3A80","udp%3A%2F%2Fopen.demonii.com%3A1337","udp%3A%2F%2Ftracker.coppersurfer.tk%3A6969","udp%3A%2F%2Fexodus.desync.com%3A6969"],"infoHash":"d8a81a2fd9d77d5fb03e30a0d045f89d2a29c128","infoHashBuffer":{"type":"Buffer","data":[216,168,26,47,217,215,125,95,176,62,48,160,208,69,248,157,42,41,193,40]},"announce":[],"urlList":[]}}